<svg xmlns="http://www.w3.org/2000/svg" viewBox="0 0 24 30" x="0px" y="0px"><path d="m22.08008,10.21875l-1.07031-1.60547c-.46484-.69727-1.24219-1.11328-2.08008-1.11328h-4.42969v-1.5c0-1.37891-1.12109-2.5-2.5-2.5H4c-1.37891,0-2.5,1.12109-2.5,2.5v3.07074c.16071-.04163.32629-.07074.5-.07074h.5v-3c0-.82715.67285-1.5,1.5-1.5h8c.82715,0,1.5.67285,1.5,1.5v11.5h-3.05054c-.23224-1.13995-1.24182-2-2.44946-2s-2.21722.86005-2.44946,2h-1.55054c-.82715,0-1.5-.67285-1.5-1.5v-3h-.5c-.17371,0-.33929-.02911-.5-.07074v3.07074c0,1.37891,1.12109,2.5,2.5,2.5h1.55054c.23224,1.13995,1.24182,2,2.44946,2s2.21722-.86005,2.44946-2h5.10107c.23224,1.13995,1.24182,2,2.44946,2,1.22339,0,2.2395-.88379,2.4541-2.0459,1.16211-.2146,2.0459-1.23071,2.0459-2.4541v-4.39453c0-.49512-.14551-.97461-.41992-1.38672Zm-14.08008,9.28125c-.82715,0-1.5-.67285-1.5-1.5s.67285-1.5,1.5-1.5,1.5.67285,1.5,1.5-.67285,1.5-1.5,1.5Zm6.5-11h4.42969c.50293,0,.96875.25,1.24805.66797l1.07031,1.60547c.14502.2171.21796.46796.23639.72656h-6.98444v-3Zm3.5,11c-.82715,0-1.5-.67285-1.5-1.5s.67285-1.5,1.5-1.5,1.5.67285,1.5,1.5-.67285,1.5-1.5,1.5Zm3.5-3.5c0,.67725-.45398,1.24438-1.07153,1.43011-.25934-1.10388-1.2464-1.93011-2.42847-1.93011-1.20764,0-2.21722.86005-2.44946,2h-1.05054v-5h7v3.5ZM2,10.5h6.79297l-1.14648-1.14648c-.19531-.19531-.19531-.51172,0-.70703s.51172-.19531.70703,0l2,2c.19531.19531.19531.51172,0,.70703l-2,2c-.09766.09766-.22559.14648-.35352.14648s-.25586-.04883-.35352-.14648c-.19531-.19531-.19531-.51172,0-.70703l1.14648-1.14648H2c-.27637,0-.5-.22363-.5-.5s.22363-.5.5-.5Z" stroke-width="0"/><text x="0" y="39" fill="#000000" font-size="5px" font-weight="bold" font-family="'Helvetica Neue', Helvetica, Arial-Unicode, Arial, Sans-serif">Created by Royyan Wijaya</text><text x="0" y="44" fill="#000000" font-size="5px" font-weight="bold" font-family="'Helvetica Neue', Helvetica, Arial-Unicode, Arial, Sans-serif">from the Noun Project</text></svg>