<svg id="Layer_2" data-name="Layer 2" xmlns="http://www.w3.org/2000/svg" viewBox="0 0 128 128"><title>KENDANG</title><path d="M105.059,102.633h-2.915a5.608,5.608,0,0,0,.566-2.446V45.319a1.75,1.75,0,0,0-1.75-1.75H67.25V37.388a1.75,1.75,0,0,0-3.5,0v6.182H60.045a9.429,9.429,0,0,0-4.2-6.427l-.875-5.82a1.751,1.751,0,0,0-1.73-1.489H48.269a1.751,1.751,0,0,0-1.73,1.489l-.875,5.82a9.428,9.428,0,0,0-4.2,6.427H39.179V22.878a1.741,1.741,0,0,0-.038-.359,10.086,10.086,0,0,0-9.827-7.977H22.942a1.75,1.75,0,0,0,0,3.5h6.373a6.572,6.572,0,0,1,6.365,5.028v12.07H22.942a1.75,1.75,0,0,0-1.75,1.75v14.25A6.771,6.771,0,0,0,27.955,57.9h7.724v42.282a6.136,6.136,0,0,0,6.168,5.939,9.072,9.072,0,0,0,17.807.007H77.039a9.073,9.073,0,0,0,17.805,0h10.214a1.75,1.75,0,0,0,0-3.5Zm-55.645-66.9.361-2.4h1.953l.361,2.4c-.046-.007-.093,0-.139-.01a9.442,9.442,0,0,0-1.173-.083h-.048a9.453,9.453,0,0,0-1.174.083C49.508,35.728,49.46,35.726,49.414,35.732ZM48.722,39.5c.1-.035.195-.058.292-.089.182-.056.367-.106.556-.145.108-.022.217-.042.326-.058a5.94,5.94,0,0,1,.746-.064c.074,0,.147,0,.221,0a5.91,5.91,0,0,1,.741.063c.111.016.221.036.331.059.186.038.368.087.547.142.1.031.2.055.3.091a5.944,5.944,0,0,1,3.7,4.067H45.018A5.945,5.945,0,0,1,48.722,39.5Zm-7,65.756c-.029-.288-.044-.58-.044-.875s.016-.6.045-.894h0c-.029.294-.045.593-.045.895s.017.588.044.877ZM27.955,54.4a3.267,3.267,0,0,1-3.263-3.264v-12.5H35.679V54.4Zm22.8,55.554a5.576,5.576,0,1,1,5.576-5.575A5.582,5.582,0,0,1,50.751,109.958Zm9.031-4.686c.029-.293.045-.589.045-.889s-.016-.6-.045-.889a8.795,8.795,0,0,1,0,1.778Zm17.084-.889a8.859,8.859,0,0,1,.045-.889c-.029.293-.045.589-.045.889s.016.6.045.889A8.862,8.862,0,0,1,76.866,104.383Zm9.076,5.575a5.576,5.576,0,1,1,5.575-5.575A5.582,5.582,0,0,1,85.942,109.958Zm9.03-4.686c.029-.293.045-.589.045-.889s-.016-.6-.045-.889a8.795,8.795,0,0,1,0,1.778Zm-.128-2.639h0a9.072,9.072,0,0,0-17.806,0H59.654a9.074,9.074,0,0,0-17.8-.047v0a3.159,3.159,0,0,1-2.677-3.113v-52.4H99.21v53.117a2.657,2.657,0,0,1-2.822,2.446Z"/><path d="M85.942,51.121a5.023,5.023,0,0,0-1.75,9.735v.5a2,2,0,0,1-2,2H54.5a2,2,0,0,1-2-2v-.5a5.033,5.033,0,1,0-3.5,0v.5a5.5,5.5,0,0,0,5.5,5.5H82.2a5.5,5.5,0,0,0,5.5-5.5v-.5a5.023,5.023,0,0,0-1.75-9.735Zm-35.191,3.5a1.533,1.533,0,1,1-1.533,1.533A1.534,1.534,0,0,1,50.751,54.621Zm35.191,0a1.533,1.533,0,1,1-1.533,1.533A1.535,1.535,0,0,1,85.942,54.621Z"/><path d="M86.189,23.193a1.75,1.75,0,0,0,1.75-1.75V18.769a1.75,1.75,0,0,0-3.5,0v2.675A1.75,1.75,0,0,0,86.189,23.193Z"/><path d="M89.448,26.646h2.675a1.75,1.75,0,0,0,0-3.5H89.448a1.75,1.75,0,0,0,0,3.5Z"/><path d="M85.994,26.405a1.75,1.75,0,0,0-1.75,1.75v2.676a1.75,1.75,0,1,0,3.5,0V28.155A1.75,1.75,0,0,0,85.994,26.405Z"/><path d="M80.061,26.452h2.675a1.75,1.75,0,0,0,0-3.5H80.061a1.75,1.75,0,0,0,0,3.5Z"/></svg>