<svg id="Layer_2" data-name="Layer 2" xmlns="http://www.w3.org/2000/svg" viewBox="0 0 128 128"><title>MEGAPHONE</title><path d="M29.6,40.5a1.75,1.75,0,0,0,1.75-1.75V36.075a1.75,1.75,0,0,0-3.5,0V38.75A1.75,1.75,0,0,0,29.6,40.5Z"/><path d="M28.093,42.2a1.75,1.75,0,0,0-1.75-1.75H23.668a1.75,1.75,0,0,0,0,3.5h2.675A1.75,1.75,0,0,0,28.093,42.2Z"/><path d="M29.8,49.888a1.75,1.75,0,0,0,1.75-1.75V45.462a1.75,1.75,0,0,0-3.5,0v2.675A1.75,1.75,0,0,0,29.8,49.888Z"/><path d="M33.056,43.759H35.73a1.75,1.75,0,0,0,0-3.5H33.056a1.75,1.75,0,1,0,0,3.5Z"/><path d="M98.2,23.018a1.75,1.75,0,0,0,1.75-1.75V18.592a1.75,1.75,0,0,0-3.5,0v2.675A1.75,1.75,0,0,0,98.2,23.018Z"/><path d="M92.27,26.471h2.675a1.75,1.75,0,0,0,0-3.5H92.27a1.75,1.75,0,0,0,0,3.5Z"/><path d="M98.4,26.229a1.75,1.75,0,0,0-1.75,1.75v2.675a1.75,1.75,0,0,0,3.5,0V27.979A1.75,1.75,0,0,0,98.4,26.229Z"/><path d="M104.332,22.776h-2.675a1.75,1.75,0,1,0,0,3.5h2.675a1.75,1.75,0,0,0,0-3.5Z"/><path d="M95.916,59.995,70.275,36.39A7.776,7.776,0,0,0,65.7,34.359v-4.3h.13a3.8,3.8,0,0,0,3.792-3.792V22.586a3.8,3.8,0,0,0-3.792-3.792H46.424a3.8,3.8,0,0,0-3.792,3.792v3.682a3.8,3.8,0,0,0,3.792,3.792h.129v4.495a6.529,6.529,0,0,0-5.866,6.488V86.25H31.468a6.883,6.883,0,0,0-6.875,6.875v11.158a6.883,6.883,0,0,0,6.875,6.875H53.875a6.83,6.83,0,0,0,2.52-.485,19.81,19.81,0,0,0,4.248.485H86.791A11.659,11.659,0,0,0,98.437,99.512V65.741a7.828,7.828,0,0,0-2.521-5.747ZM46.132,26.269V22.586a.292.292,0,0,1,.292-.292H65.833a.292.292,0,0,1,.292.292v3.682a.292.292,0,0,1-.292.292H46.424A.292.292,0,0,1,46.132,26.269ZM62.2,30.06v4.265H50.053V30.06ZM28.093,93.125a3.379,3.379,0,0,1,3.375-3.375H53.875a3.379,3.379,0,0,1,3.375,3.375v3.991a3.379,3.379,0,0,1-3.375,3.375H31.468a3.379,3.379,0,0,1-3.375-3.375Zm3.375,14.533a3.379,3.379,0,0,1-3.375-3.375V103.1a6.826,6.826,0,0,0,3.375.892H53.875a6.826,6.826,0,0,0,3.375-.892v1.184a3.357,3.357,0,0,1-.06.594c-.011.062-.025.123-.039.184a3.328,3.328,0,0,1-.122.393c-.036.095-.074.188-.119.279a2.934,2.934,0,0,1-.394.626c-.022.028-.045.055-.068.083a3.443,3.443,0,0,1-1.057.833c-.016.008-.026.022-.042.03a3.334,3.334,0,0,1-1.474.353Zm63.469-8.146a8.155,8.155,0,0,1-8.146,8.146H60.643q-.384,0-.772-.02h0a6.85,6.85,0,0,0,.367-.759c.012-.029.021-.06.033-.09a6.8,6.8,0,0,0,.22-.657c.02-.073.038-.146.057-.219.047-.193.085-.388.116-.587.012-.076.026-.151.035-.227a6.885,6.885,0,0,0,.053-.814V93.125a6.883,6.883,0,0,0-6.875-6.875H44.187V41.042a3.024,3.024,0,0,1,3.021-3.021l17.717-.2a4.282,4.282,0,0,1,2.98,1.139l25.641,23.6h0a4.321,4.321,0,0,1,1.391,3.171Z"/><path d="M84.341,65.083a4.763,4.763,0,0,0-4.758,4.757v25.22a4.758,4.758,0,0,0,9.516,0V69.841A4.763,4.763,0,0,0,84.341,65.083ZM85.6,95.061a1.258,1.258,0,0,1-2.516,0V69.841a1.258,1.258,0,0,1,2.516,0Z"/></svg>