<svg xmlns="http://www.w3.org/2000/svg" viewBox="0 0 120 120" fill="none">
  <!-- Bucket -->
  <path d="M25 45 L32 95 L88 95 L95 45 Z" fill="#3b82f6" stroke="#2563eb" stroke-width="2"/>
  <!-- Bucket rim -->
  <ellipse cx="60" cy="45" rx="35" ry="8" fill="#60a5fa" stroke="#2563eb" stroke-width="2"/>
  <!-- Bucket handle -->
  <path d="M35 40 Q60 15 85 40" fill="none" stroke="#374151" stroke-width="3" stroke-linecap="round"/>
  <!-- Soap bubbles -->
  <circle cx="50" cy="38" r="6" fill="#e0f2fe" stroke="#93c5fd" stroke-width="1.5" opacity="0.9"/>
  <circle cx="65" cy="33" r="8" fill="#e0f2fe" stroke="#93c5fd" stroke-width="1.5" opacity="0.9"/>
  <circle cx="78" cy="39" r="5" fill="#e0f2fe" stroke="#93c5fd" stroke-width="1.5" opacity="0.9"/>
  <circle cx="58" cy="26" r="4" fill="#e0f2fe" stroke="#93c5fd" stroke-width="1.5" opacity="0.8"/>
  <!-- Sponge next to bucket -->
  <rect x="15" y="82" width="18" height="12" rx="3" fill="#f59e0b" stroke="#d97706" stroke-width="1.5"/>
  <line x1="19" y1="85" x2="19" y2="91" stroke="#d97706" stroke-width="1" opacity="0.5"/>
  <line x1="24" y1="85" x2="24" y2="91" stroke="#d97706" stroke-width="1" opacity="0.5"/>
  <line x1="29" y1="85" x2="29" y2="91" stroke="#d97706" stroke-width="1" opacity="0.5"/>
  <!-- Spray bottle -->
  <rect x="90" y="60" width="14" height="30" rx="3" fill="#10b981" stroke="#059669" stroke-width="1.5"/>
  <rect x="93" y="52" width="8" height="10" rx="1" fill="#374151" stroke="#1a1a1a" stroke-width="1.5"/>
  <path d="M93 56 L86 53" stroke="#374151" stroke-width="2" stroke-linecap="round"/>
  <!-- Sparkles -->
  <path d="M42 18 L44 12 L46 18 L52 20 L46 22 L44 28 L42 22 L36 20 Z" fill="#f59e0b" opacity="0.8"/>
  <path d="M82 22 L83 18 L84 22 L88 23 L84 24 L83 28 L82 24 L78 23 Z" fill="#f59e0b" opacity="0.6"/>
</svg>